<?xml version="1.0" encoding="utf-8"?>
<!-- Generator: Adobe Illustrator 22.0.1, SVG Export Plug-In . SVG Version: 6.00 Build 0)  -->
<svg version="1.1" id="Layer_1" xmlns="http://www.w3.org/2000/svg" xmlns:xlink="http://www.w3.org/1999/xlink" x="0px" y="0px"
	 viewBox="0 0 448 512" style="enable-background:new 0 0 448 512;" xml:space="preserve">
<style type="text/css">
	.st0{fill:#FFFFFF;}
</style>
<path class="st0" d="M448,294.2v-76.4c0-13.3-10.7-24-24-24H286.2V56c0-13.3-10.7-24-24-24h-76.4c-13.3,0-24,10.7-24,24v137.8H24
	c-13.3,0-24,10.7-24,24v76.4c0,13.3,10.7,24,24,24h137.8V456c0,13.3,10.7,24,24,24h76.4c13.3,0,24-10.7,24-24V318.2H424
	C437.3,318.2,448,307.5,448,294.2z"/>
</svg>
